<?xml version="1.0" encoding="UTF-8" standalone="no"?>
<!-- Created with Inkscape (http://www.inkscape.org/) -->

<svg
   xmlns:dc="http://purl.org/dc/elements/1.1/"
   xmlns:cc="http://creativecommons.org/ns#"
   xmlns:rdf="http://www.w3.org/1999/02/22-rdf-syntax-ns#"
   xmlns:svg="http://www.w3.org/2000/svg"
   xmlns="http://www.w3.org/2000/svg"
   xmlns:sodipodi="http://sodipodi.sourceforge.net/DTD/sodipodi-0.dtd"
   xmlns:inkscape="http://www.inkscape.org/namespaces/inkscape"
   width="136.66371mm"
   height="36.468342mm"
   viewBox="0 0 136.66371 36.468342"
   version="1.1"
   id="svg8"
   inkscape:version="0.92.2 (unknown)"
   sodipodi:docname="Horizontal_Color.svg"
   inkscape:export-filename="/home/elioqoshi/Documents/Wikimedia Albania UG/Export/PNG/Vertical_Black.png"
   inkscape:export-xdpi="555.10291"
   inkscape:export-ydpi="555.10291">
  <defs
     id="defs2" />
  <sodipodi:namedview
     id="base"
     pagecolor="#ffffff"
     bordercolor="#666666"
     borderopacity="1.0"
     inkscape:pageopacity="0.0"
     inkscape:pageshadow="2"
     inkscape:zoom="1.4"
     inkscape:cx="338.88665"
     inkscape:cy="-92.719996"
     inkscape:document-units="mm"
     inkscape:current-layer="text970"
     showgrid="true"
     inkscape:showpageshadow="false"
     borderlayer="false"
     objecttolerance="20"
     guidetolerance="20"
     inkscape:snap-tangential="true"
     inkscape:snap-perpendicular="true"
     inkscape:snap-grids="true"
     inkscape:snap-page="true"
     inkscape:window-width="2560"
     inkscape:window-height="1392"
     inkscape:window-x="0"
     inkscape:window-y="48"
     inkscape:window-maximized="1" />
  <metadata
     id="metadata5">
    <rdf:RDF>
      <cc:Work
         rdf:about="">
        <dc:format>image/svg+xml</dc:format>
        <dc:type
           rdf:resource="http://purl.org/dc/dcmitype/StillImage" />
        <dc:title />
      </cc:Work>
    </rdf:RDF>
  </metadata>
  <g
     inkscape:groupmode="layer"
     id="layer2"
     inkscape:label="Layer 2"
     style="opacity:1"
     transform="translate(-3.961907,-17.798535)">
    <g
       transform="matrix(0.26458333,0,0,0.26458333,-34.215245,-124.41133)"
       id="g1424"
       inkscape:export-filename="/home/elioqoshi/Documents/Wikimedia Albania UG/Export/PNG/Horizontal_Color.png"
       inkscape:export-xdpi="371.71533"
       inkscape:export-ydpi="371.71533">
      <path
         id="path976"
         style="fill:#ff5858;fill-opacity:1;stroke-width:0.89293271"
         d="m 213.21707,537.48611 c 12.68858,0 22.97516,10.27766 22.97516,22.97516 0,12.67965 -10.27765,22.96623 -22.97516,22.96623 -12.68857,0 -22.96623,-10.28658 -22.96623,-22.96623 0,-12.68857 10.27766,-22.97516 22.96623,-22.97516 z"
         inkscape:connector-curvature="0" />
      <path
         id="path978"
         style="fill:#ff5858;fill-opacity:1;stroke-width:0.89293271"
         d="m 259.60493,555.42513 -13.01896,13.01896 c 10.52768,9.25971 17.18896,22.83229 17.18896,37.94964 0,27.91308 -22.63585,50.53999 -50.54893,50.53999 -27.91307,0 -50.53999,-22.62691 -50.53999,-50.53999 0,-15.10842 6.63449,-28.68993 17.16217,-37.94964 l -13.01003,-13.01896 c -13.85832,12.60821 -22.54655,30.77939 -22.54655,50.97753 0,38.06572 30.85975,68.91655 68.91655,68.91655 38.07465,0 68.92547,-30.85083 68.92547,-68.91655 0.009,-20.18921 -8.68823,-38.36039 -22.52869,-50.97753 z"
         inkscape:connector-curvature="0" />
      <path
         id="path980"
         style="fill:#ff5858;fill-opacity:1;stroke-width:0.89293271"
         d="m 240.05863,574.97143 -22.25188,22.24295 v 50.27211 c 20.67139,-2.27697 36.76204,-19.79631 36.76204,-41.09276 0,-12.58142 -5.63441,-23.8413 -14.51016,-31.43123 z"
         inkscape:connector-curvature="0" />
      <path
         id="path982"
         style="fill:#ff5858;fill-opacity:1;stroke-width:0.89293271"
         d="m 208.61847,597.22331 -22.26081,-22.25188 c -8.85789,7.581 -14.50123,18.84981 -14.50123,31.43123 0,21.28752 16.08172,38.81579 36.75311,41.09276 v -50.27211 z"
         inkscape:connector-curvature="0" />
    </g>
    <g
       id="g1412"
       transform="matrix(0.26458333,0,0,0.26458333,-34.215245,-126.20927)"
       inkscape:export-filename="/home/elioqoshi/Documents/Wikimedia Albania UG/Export/PNG/Horizontal_Color.png"
       inkscape:export-xdpi="371.71533"
       inkscape:export-ydpi="371.71533">
      <g
         aria-label="WIKIMEDIA"
         style="font-style:normal;font-weight:normal;font-size:51.29227829px;line-height:125%;font-family:sans-serif;letter-spacing:0px;word-spacing:0px;fill:#000000;fill-opacity:1;stroke:none;stroke-width:1.28230703px;stroke-linecap:butt;stroke-linejoin:miter;stroke-opacity:1"
         id="text970">
        <path
           d="m 304.31535,564.13054 11.79723,35.95589 h 9.64295 l 6.66799,-24.26125 6.46283,24.26125 h 9.69424 l 11.84852,-35.95589 h -9.64295 l -6.77058,26.00518 -6.82188,-26.00518 h -9.18131 l -6.77058,26.00518 -6.82188,-26.00518 z"
           style="font-style:normal;font-variant:normal;font-weight:bold;font-stretch:normal;font-family:Montserrat;-inkscape-font-specification:'Montserrat Bold';stroke-width:1.28230703px"
           id="path996"
           inkscape:connector-curvature="0" />
        <path
           d="m 363.60602,564.13054 v 35.95589 h 9.38649 v -35.95589 z"
           style="font-style:normal;font-variant:normal;font-weight:bold;font-stretch:normal;font-family:Montserrat;-inkscape-font-specification:'Montserrat Bold';stroke-width:1.28230703px"
           id="path998"
           inkscape:connector-curvature="0" />
        <path
           d="m 414.5064,600.08643 -14.15667,-21.08113 13.33599,-14.87476 h -10.87396 l -13.48987,15.07993 v -15.07993 h -9.38649 v 35.95589 h 9.38649 v -8.77098 l 4.6163,-5.12923 9.3352,13.90021 z"
           style="font-style:normal;font-variant:normal;font-weight:bold;font-stretch:normal;font-family:Montserrat;-inkscape-font-specification:'Montserrat Bold';stroke-width:1.28230703px"
           id="path1000"
           inkscape:connector-curvature="0" />
        <path
           d="m 418.30443,564.13054 v 35.95589 h 9.38648 v -35.95589 z"
           style="font-style:normal;font-variant:normal;font-weight:bold;font-stretch:normal;font-family:Montserrat;-inkscape-font-specification:'Montserrat Bold';stroke-width:1.28230703px"
           id="path1002"
           inkscape:connector-curvature="0" />
        <path
           d="m 434.63381,564.13054 v 35.95589 h 8.36064 v -22.77378 l 8.36064,19.18332 h 6.15508 l 8.36064,-19.18332 0.0513,22.77378 h 8.30935 V 564.13054 H 463.973 l -9.54036,20.97854 -9.54036,-20.97854 z"
           style="font-style:normal;font-variant:normal;font-weight:bold;font-stretch:normal;font-family:Montserrat;-inkscape-font-specification:'Montserrat Bold';stroke-width:1.28230703px"
           id="path1004"
           inkscape:connector-curvature="0" />
        <path
           d="m 481.21761,564.13054 v 35.95589 h 28.87755 v -7.48868 H 490.6041 v -6.77058 l 17.13162,-0.0513 V 578.3385 H 490.6041 v -6.71929 h 18.97814 v -7.48867 z"
           style="font-style:normal;font-variant:normal;font-weight:bold;font-stretch:normal;font-family:Montserrat;-inkscape-font-specification:'Montserrat Bold';stroke-width:1.28230703px"
           id="path1006"
           inkscape:connector-curvature="0" />
        <path
           d="m 531.37025,564.13054 h -15.49027 v 35.95589 h 15.13122 c 11.64335,0 19.49107,-7.28351 19.49107,-18.00359 0,-10.6688 -7.74514,-17.9523 -19.13202,-17.9523 z m 0.25646,28.36463 h -6.36024 v -20.72208 h 5.89861 c 5.69344,0 9.74553,4.20596 9.74553,10.41233 0,6.15507 -3.84692,10.30975 -9.2839,10.30975 z"
           style="font-style:normal;font-variant:normal;font-weight:bold;font-stretch:normal;font-family:Montserrat;-inkscape-font-specification:'Montserrat Bold';stroke-width:1.28230703px"
           id="path1008"
           inkscape:connector-curvature="0" />
        <path
           d="m 555.15063,564.13054 v 35.95589 h 9.38648 v -35.95589 z"
           style="font-style:normal;font-variant:normal;font-weight:bold;font-stretch:normal;font-family:Montserrat;-inkscape-font-specification:'Montserrat Bold';stroke-width:1.28230703px"
           id="path1010"
           inkscape:connector-curvature="0" />
        <path
           d="m 597.89552,600.08643 h 10.002 l -15.07993,-35.95589 h -9.64295 l -15.43897,35.95589 h 9.64294 l 2.51333,-6.36025 h 15.54156 z m -15.18251,-13.54117 5.02664,-12.82307 4.92406,12.82307 z"
           style="font-style:normal;font-variant:normal;font-weight:bold;font-stretch:normal;font-family:Montserrat;-inkscape-font-specification:'Montserrat Bold';stroke-width:1.28230703px"
           id="path1012"
           inkscape:connector-curvature="0" />
      </g>
      <g
         aria-label="COMMUNITY USER GROUP"
         style="font-style:normal;font-weight:normal;font-size:40px;line-height:125%;font-family:sans-serif;letter-spacing:0px;word-spacing:0px;fill:#ff5858;fill-opacity:1;stroke:none;stroke-width:1px;stroke-linecap:butt;stroke-linejoin:miter;stroke-opacity:1"
         id="text974">
        <path
           d="m 325.44289,616.89833 1.288,-1.60534 c -1.26933,-1.25066 -3.11733,-2.016 -4.96533,-2.016 -3.864,0 -6.86933,2.856 -6.86933,6.57067 0,3.752 2.968,6.64533 6.79466,6.64533 1.848,0 3.73334,-0.84 5.05867,-2.14667 l -1.30667,-1.456 c -0.98933,0.952 -2.33333,1.54934 -3.64,1.54934 -2.61333,0 -4.66666,-2.03467 -4.66666,-4.61067 0,-2.576 2.05333,-4.592 4.66666,-4.592 1.32534,0 2.688,0.63467 3.64,1.66134 z"
           style="font-style:normal;font-variant:normal;font-weight:normal;font-stretch:normal;font-size:18.66666603px;line-height:14.39999962ex;font-family:Montserrat;-inkscape-font-specification:Montserrat;text-align:center;letter-spacing:5px;text-anchor:middle;fill:#ff5858;fill-opacity:1"
           id="path959"
           inkscape:connector-curvature="0" />
        <path
           d="m 339.54552,613.27699 c -3.90134,0 -6.92534,2.83734 -6.92534,6.58934 0,3.73333 3.024,6.62666 6.92534,6.62666 3.90133,0 6.92533,-2.89333 6.92533,-6.62666 0,-3.73334 -3.024,-6.58934 -6.92533,-6.58934 z m 0.0187,1.97867 c 2.55734,0 4.648,2.016 4.648,4.61067 0,2.59466 -2.09066,4.64799 -4.648,4.64799 -2.55733,0 -4.704,-2.05333 -4.704,-4.64799 0,-2.59467 2.128,-4.61067 4.704,-4.61067 z"
           style="font-style:normal;font-variant:normal;font-weight:normal;font-stretch:normal;font-size:18.66666603px;line-height:14.39999962ex;font-family:Montserrat;-inkscape-font-specification:Montserrat;text-align:center;letter-spacing:5px;text-anchor:middle;fill:#ff5858;fill-opacity:1"
           id="path961"
           inkscape:connector-curvature="0" />
        <path
           d="m 353.83306,613.33299 v 13.06667 h 2.072 v -9.76267 l 4.12533,8.4 h 1.43733 l 4.12534,-8.4 0.0187,9.76267 h 2.03467 v -13.06667 h -2.59467 l -4.29333,8.68 -4.312,-8.68 z"
           style="font-style:normal;font-variant:normal;font-weight:normal;font-stretch:normal;font-size:18.66666603px;line-height:14.39999962ex;font-family:Montserrat;-inkscape-font-specification:Montserrat;text-align:center;letter-spacing:5px;text-anchor:middle;fill:#ff5858;fill-opacity:1"
           id="path963"
           inkscape:connector-curvature="0" />
        <path
           d="m 376.11431,613.33299 v 13.06667 h 2.072 v -9.76267 l 4.12533,8.4 h 1.43733 l 4.12534,-8.4 0.0187,9.76267 h 2.03467 v -13.06667 h -2.59467 l -4.29333,8.68 -4.312,-8.68 z"
           style="font-style:normal;font-variant:normal;font-weight:normal;font-stretch:normal;font-size:18.66666603px;line-height:14.39999962ex;font-family:Montserrat;-inkscape-font-specification:Montserrat;text-align:center;letter-spacing:5px;text-anchor:middle;fill:#ff5858;fill-opacity:1"
           id="path965"
           inkscape:connector-curvature="0" />
        <path
           d="m 400.33689,620.98633 v -7.65334 h -2.20267 v 7.65334 c 0,3.41599 2.16534,5.50666 5.69334,5.50666 3.528,0 5.67466,-2.09067 5.67466,-5.50666 v -7.65334 h -2.20266 v 7.65334 c 0,2.22133 -1.32534,3.52799 -3.45334,3.52799 -2.14666,0 -3.50933,-1.32533 -3.50933,-3.52799 z"
           style="font-style:normal;font-variant:normal;font-weight:normal;font-stretch:normal;font-size:18.66666603px;line-height:14.39999962ex;font-family:Montserrat;-inkscape-font-specification:Montserrat;text-align:center;letter-spacing:5px;text-anchor:middle;fill:#ff5858;fill-opacity:1"
           id="path967"
           inkscape:connector-curvature="0" />
        <path
           d="m 417.65077,613.33299 v 13.06667 h 2.20267 v -9.37067 l 6.96266,9.37067 h 2.16533 v -13.06667 h -2.16533 v 9.38933 l -7,-9.38933 z"
           style="font-style:normal;font-variant:normal;font-weight:normal;font-stretch:normal;font-size:18.66666603px;line-height:14.39999962ex;font-family:Montserrat;-inkscape-font-specification:Montserrat;text-align:center;letter-spacing:5px;text-anchor:middle;fill:#ff5858;fill-opacity:1"
           id="path969"
           inkscape:connector-curvature="0" />
        <path
           d="m 437.45285,613.33299 v 13.06667 h 2.20266 v -13.06667 z"
           style="font-style:normal;font-variant:normal;font-weight:normal;font-stretch:normal;font-size:18.66666603px;line-height:14.39999962ex;font-family:Montserrat;-inkscape-font-specification:Montserrat;text-align:center;letter-spacing:5px;text-anchor:middle;fill:#ff5858;fill-opacity:1"
           id="path971"
           inkscape:connector-curvature="0" />
        <path
           d="m 446.55456,613.33299 v 1.97867 h 4.12533 v 11.088 h 2.20267 v -11.088 h 4.144 v -1.97867 z"
           style="font-style:normal;font-variant:normal;font-weight:normal;font-stretch:normal;font-size:18.66666603px;line-height:14.39999962ex;font-family:Montserrat;-inkscape-font-specification:Montserrat;text-align:center;letter-spacing:5px;text-anchor:middle;fill:#ff5858;fill-opacity:1"
           id="path973"
           inkscape:connector-curvature="0" />
        <path
           d="m 474.05023,613.33299 h -2.24 l -3.65866,6.36534 -3.73334,-6.36534 h -2.22133 l 4.872,8.792 v 4.27467 h 2.184 v -4.34933 z"
           style="font-style:normal;font-variant:normal;font-weight:normal;font-stretch:normal;font-size:18.66666603px;line-height:14.39999962ex;font-family:Montserrat;-inkscape-font-specification:Montserrat;text-align:center;letter-spacing:5px;text-anchor:middle;fill:#ff5858;fill-opacity:1"
           id="path975"
           inkscape:connector-curvature="0" />
        <path
           d="m 493.33688,620.98633 v -7.65334 h -2.20266 v 7.65334 c 0,3.41599 2.16533,5.50666 5.69333,5.50666 3.528,0 5.67467,-2.09067 5.67467,-5.50666 v -7.65334 h -2.20267 v 7.65334 c 0,2.22133 -1.32533,3.52799 -3.45333,3.52799 -2.14667,0 -3.50934,-1.32533 -3.50934,-3.52799 z"
           style="font-style:normal;font-variant:normal;font-weight:normal;font-stretch:normal;font-size:18.66666603px;line-height:14.39999962ex;font-family:Montserrat;-inkscape-font-specification:Montserrat;text-align:center;letter-spacing:5px;text-anchor:middle;fill:#ff5858;fill-opacity:1"
           id="path977"
           inkscape:connector-curvature="0" />
        <path
           d="m 518.60277,616.52499 0.91466,-1.94133 c -1.21333,-0.80267 -2.87466,-1.344 -4.57333,-1.344 -2.83733,0 -4.76,1.4 -4.76,3.64 0,4.648 7.056,3.024 7.056,5.936 0,1.008 -0.91466,1.58666 -2.44533,1.58666 -1.4,0 -3.08,-0.672 -4.424,-1.90399 l -0.952,1.90399 c 1.344,1.232 3.28533,2.072 5.33867,2.072 2.87466,0 4.92799,-1.43733 4.92799,-3.77066 0.0187,-4.704 -7.03733,-3.17333 -7.03733,-6.02933 0,-0.87734 0.84,-1.36267 2.128,-1.36267 0.98934,0 2.408,0.35467 3.82667,1.21333 z"
           style="font-style:normal;font-variant:normal;font-weight:normal;font-stretch:normal;font-size:18.66666603px;line-height:14.39999962ex;font-family:Montserrat;-inkscape-font-specification:Montserrat;text-align:center;letter-spacing:5px;text-anchor:middle;fill:#ff5858;fill-opacity:1"
           id="path979"
           inkscape:connector-curvature="0" />
        <path
           d="m 527.24452,613.33299 v 13.06667 h 9.55733 v -1.97867 h -7.35466 v -3.60266 h 6.38399 v -1.96 h -6.38399 v -3.54667 h 7.13066 v -1.97867 z"
           style="font-style:normal;font-variant:normal;font-weight:normal;font-stretch:normal;font-size:18.66666603px;line-height:14.39999962ex;font-family:Montserrat;-inkscape-font-specification:Montserrat;text-align:center;letter-spacing:5px;text-anchor:middle;fill:#ff5858;fill-opacity:1"
           id="path981"
           inkscape:connector-curvature="0" />
        <path
           d="m 555.28385,626.39966 -2.93067,-4.368 c 1.736,-0.672 2.70667,-2.14667 2.70667,-4.23733 0,-2.83734 -1.92267,-4.46134 -5.264,-4.46134 h -5.30133 v 13.06667 h 2.20267 v -3.93867 h 3.09866 c 0.20534,0 0.41067,0 0.59734,-0.0187 l 2.38933,3.95733 z m -8.58666,-5.91733 v -5.17067 h 3.09866 c 2.016,0 3.17333,0.82133 3.17333,2.53867 0,1.77333 -1.15733,2.632 -3.17333,2.632 z"
           style="font-style:normal;font-variant:normal;font-weight:normal;font-stretch:normal;font-size:18.66666603px;line-height:14.39999962ex;font-family:Montserrat;-inkscape-font-specification:Montserrat;text-align:center;letter-spacing:5px;text-anchor:middle;fill:#ff5858;fill-opacity:1"
           id="path983"
           inkscape:connector-curvature="0" />
        <path
           d="m 582.54001,623.61832 c -0.93334,0.56 -2.03467,0.896 -3.00534,0.896 -2.66933,0 -4.77866,-2.03466 -4.77866,-4.64799 0,-2.59467 2.09066,-4.62934 4.76,-4.62934 1.36266,0 2.76266,0.56 3.77066,1.49334 l 1.25067,-1.624 c -1.288,-1.12 -3.15467,-1.82934 -5.02133,-1.82934 -3.95734,0 -7,2.856 -7,6.58934 0,3.73333 3.00533,6.62666 6.86933,6.62666 1.792,0 3.752,-0.69067 5.07733,-1.69867 v -4.81599 h -1.92266 z"
           style="font-style:normal;font-variant:normal;font-weight:normal;font-stretch:normal;font-size:18.66666603px;line-height:14.39999962ex;font-family:Montserrat;-inkscape-font-specification:Montserrat;text-align:center;letter-spacing:5px;text-anchor:middle;fill:#ff5858;fill-opacity:1"
           id="path985"
           inkscape:connector-curvature="0" />
        <path
           d="m 603.35157,626.39966 -2.93067,-4.368 c 1.736,-0.672 2.70667,-2.14667 2.70667,-4.23733 0,-2.83734 -1.92267,-4.46134 -5.264,-4.46134 h -5.30133 v 13.06667 h 2.20266 v -3.93867 h 3.09867 c 0.20533,0 0.41067,0 0.59733,-0.0187 l 2.38934,3.95733 z m -8.58667,-5.91733 v -5.17067 h 3.09867 c 2.016,0 3.17333,0.82133 3.17333,2.53867 0,1.77333 -1.15733,2.632 -3.17333,2.632 z"
           style="font-style:normal;font-variant:normal;font-weight:normal;font-stretch:normal;font-size:18.66666603px;line-height:14.39999962ex;font-family:Montserrat;-inkscape-font-specification:Montserrat;text-align:center;letter-spacing:5px;text-anchor:middle;fill:#ff5858;fill-opacity:1"
           id="path987"
           inkscape:connector-curvature="0" />
        <path
           d="m 616.89447,613.27699 c -3.90134,0 -6.92534,2.83734 -6.92534,6.58934 0,3.73333 3.024,6.62666 6.92534,6.62666 3.90133,0 6.92533,-2.89333 6.92533,-6.62666 0,-3.73334 -3.024,-6.58934 -6.92533,-6.58934 z m 0.0187,1.97867 c 2.55734,0 4.648,2.016 4.648,4.61067 0,2.59466 -2.09066,4.64799 -4.648,4.64799 -2.55733,0 -4.704,-2.05333 -4.704,-4.64799 0,-2.59467 2.128,-4.61067 4.704,-4.61067 z"
           style="font-style:normal;font-variant:normal;font-weight:normal;font-stretch:normal;font-size:18.66666603px;line-height:14.39999962ex;font-family:Montserrat;-inkscape-font-specification:Montserrat;text-align:center;letter-spacing:5px;text-anchor:middle;fill:#ff5858;fill-opacity:1"
           id="path989"
           inkscape:connector-curvature="0" />
        <path
           d="m 633.12335,620.98633 v -7.65334 h -2.20266 v 7.65334 c 0,3.41599 2.16533,5.50666 5.69333,5.50666 3.528,0 5.67466,-2.09067 5.67466,-5.50666 v -7.65334 h -2.20266 v 7.65334 c 0,2.22133 -1.32534,3.52799 -3.45333,3.52799 -2.14667,0 -3.50934,-1.32533 -3.50934,-3.52799 z"
           style="font-style:normal;font-variant:normal;font-weight:normal;font-stretch:normal;font-size:18.66666603px;line-height:14.39999962ex;font-family:Montserrat;-inkscape-font-specification:Montserrat;text-align:center;letter-spacing:5px;text-anchor:middle;fill:#ff5858;fill-opacity:1"
           id="path991"
           inkscape:connector-curvature="0" />
        <path
           d="m 655.64521,613.33299 h -5.208 v 13.06667 h 2.20266 v -3.93867 h 3.00534 c 3.28533,0 5.17066,-1.71733 5.17066,-4.66666 0,-2.83734 -1.88533,-4.46134 -5.17066,-4.46134 z m -0.0933,7.14934 h -2.912 v -5.17067 h 2.912 c 2.016,0 3.15467,0.82133 3.15467,2.53867 0,1.77333 -1.13867,2.632 -3.15467,2.632 z"
           style="font-style:normal;font-variant:normal;font-weight:normal;font-stretch:normal;font-size:18.66666603px;line-height:14.39999962ex;font-family:Montserrat;-inkscape-font-specification:Montserrat;text-align:center;letter-spacing:5px;text-anchor:middle;fill:#ff5858;fill-opacity:1"
           id="path993"
           inkscape:connector-curvature="0" />
      </g>
      <g
         aria-label="ALBANIA"
         style="font-style:normal;font-weight:normal;font-size:34.62031555px;line-height:125%;font-family:sans-serif;letter-spacing:0px;word-spacing:0px;fill:#000000;fill-opacity:1;stroke:none;stroke-width:0.86550796px;stroke-linecap:butt;stroke-linejoin:miter;stroke-opacity:1"
         id="text986">
        <path
           d="m 324.74114,662.2655 h 6.75096 l -10.17837,-24.26884 h -6.50862 l -10.42072,24.26884 h 6.50862 l 1.6964,-4.29292 h 10.48995 z m -10.24761,-9.13976 3.39279,-8.65508 3.32355,8.65508 z"
           style="font-style:normal;font-variant:normal;font-weight:bold;font-stretch:normal;font-family:Montserrat;-inkscape-font-specification:'Montserrat Bold';stroke-width:0.86550796px"
           id="path944"
           inkscape:connector-curvature="0" />
        <path
           d="m 333.68833,637.99666 v 24.26884 h 16.61775 v -5.40077 h -10.28224 v -18.86807 z"
           style="font-style:normal;font-variant:normal;font-weight:bold;font-stretch:normal;font-family:Montserrat;-inkscape-font-specification:'Montserrat Bold';stroke-width:0.86550796px"
           id="path946"
           inkscape:connector-curvature="0" />
        <path
           d="m 364.69082,637.99666 h -11.52857 v 24.26884 h 11.97863 c 5.71235,0 9.34749,-2.59652 9.34749,-6.75096 0,-3.11583 -1.90412,-5.50463 -4.98533,-6.12779 2.5619,-0.69241 4.18906,-2.73501 4.18906,-5.26229 0,-3.739 -3.49665,-6.1278 -9.00128,-6.1278 z m -0.34621,9.65907 h -4.84684 v -4.70836 h 4.84684 c 1.76564,-0.0346 2.83887,0.83088 2.83887,2.28494 0,1.52329 -1.07323,2.42342 -2.83887,2.42342 z m 0,9.69369 h -4.84684 v -5.08919 h 4.84684 c 2.2157,-0.0346 3.60052,0.93475 3.60052,2.45804 0,1.66178 -1.38482,2.63115 -3.60052,2.63115 z"
           style="font-style:normal;font-variant:normal;font-weight:bold;font-stretch:normal;font-family:Montserrat;-inkscape-font-specification:'Montserrat Bold';stroke-width:0.86550796px"
           id="path948"
           inkscape:connector-curvature="0" />
        <path
           d="m 395.80745,662.2655 h 6.75097 l -10.17838,-24.26884 h -6.50862 l -10.42071,24.26884 h 6.50862 l 1.69639,-4.29292 h 10.48996 z m -10.24761,-9.13976 3.39279,-8.65508 3.32355,8.65508 z"
           style="font-style:normal;font-variant:normal;font-weight:bold;font-stretch:normal;font-family:Montserrat;-inkscape-font-specification:'Montserrat Bold';stroke-width:0.86550796px"
           id="path950"
           inkscape:connector-curvature="0" />
        <path
           d="m 404.75463,637.99666 v 24.26884 h 5.92008 v -14.54053 l 11.00926,14.54053 h 5.53925 v -24.26884 h -5.88546 v 14.60977 L 410.3285,637.99666 Z"
           style="font-style:normal;font-variant:normal;font-weight:bold;font-stretch:normal;font-family:Montserrat;-inkscape-font-specification:'Montserrat Bold';stroke-width:0.86550796px"
           id="path952"
           inkscape:connector-curvature="0" />
        <path
           d="m 431.93699,637.99666 v 24.26884 h 6.33552 v -24.26884 z"
           style="font-style:normal;font-variant:normal;font-weight:bold;font-stretch:normal;font-family:Montserrat;-inkscape-font-specification:'Montserrat Bold';stroke-width:0.86550796px"
           id="path954"
           inkscape:connector-curvature="0" />
        <path
           d="m 460.78817,662.2655 h 6.75096 l -10.17837,-24.26884 h -6.50862 l -10.42072,24.26884 h 6.50862 l 1.6964,-4.29292 h 10.48995 z m -10.24762,-9.13976 3.39279,-8.65508 3.32355,8.65508 z"
           style="font-style:normal;font-variant:normal;font-weight:bold;font-stretch:normal;font-family:Montserrat;-inkscape-font-specification:'Montserrat Bold';stroke-width:0.86550796px"
           id="path956"
           inkscape:connector-curvature="0" />
      </g>
      <flowRoot
         xml:space="preserve"
         id="flowRoot936"
         style="font-style:normal;font-weight:normal;font-size:40px;line-height:125%;font-family:sans-serif;letter-spacing:0px;word-spacing:0px;fill:#000000;fill-opacity:1;stroke:none;stroke-width:1px;stroke-linecap:butt;stroke-linejoin:miter;stroke-opacity:1"
         transform="translate(144.2916,544.28147)"><flowRegion
           id="flowRegion938"><rect
             id="rect940"
             width="495.71429"
             height="336.42856"
             x="127.85714"
             y="-107.88118" /></flowRegion><flowPara
           id="flowPara942"></flowPara></flowRoot>    </g>
  </g>
</svg>
