<?xml version="1.0" encoding="UTF-8" standalone="no"?>
<!-- Created with Inkscape (http://www.inkscape.org/) -->

<svg
   xmlns:dc="http://purl.org/dc/elements/1.1/"
   xmlns:cc="http://creativecommons.org/ns#"
   xmlns:rdf="http://www.w3.org/1999/02/22-rdf-syntax-ns#"
   xmlns:svg="http://www.w3.org/2000/svg"
   xmlns="http://www.w3.org/2000/svg"
   xmlns:sodipodi="http://sodipodi.sourceforge.net/DTD/sodipodi-0.dtd"
   xmlns:inkscape="http://www.inkscape.org/namespaces/inkscape"
   width="36.470703mm"
   height="36.468342mm"
   viewBox="0 0 36.470703 36.468342"
   version="1.1"
   id="svg8"
   inkscape:version="0.92.2 (unknown)"
   sodipodi:docname="Icon_Color.svg"
   inkscape:export-filename="/home/elioqoshi/Documents/Wikimedia Albania UG/Export/PNG/Vertical_Black.png"
   inkscape:export-xdpi="555.10291"
   inkscape:export-ydpi="555.10291">
  <defs
     id="defs2" />
  <sodipodi:namedview
     id="base"
     pagecolor="#ffffff"
     bordercolor="#666666"
     borderopacity="1.0"
     inkscape:pageopacity="0.0"
     inkscape:pageshadow="2"
     inkscape:zoom="1.4"
     inkscape:cx="393.51957"
     inkscape:cy="17.412605"
     inkscape:document-units="mm"
     inkscape:current-layer="layer2"
     showgrid="true"
     inkscape:showpageshadow="false"
     borderlayer="false"
     objecttolerance="20"
     guidetolerance="20"
     inkscape:snap-tangential="true"
     inkscape:snap-perpendicular="true"
     inkscape:snap-grids="true"
     inkscape:snap-page="true"
     inkscape:window-width="2560"
     inkscape:window-height="1392"
     inkscape:window-x="0"
     inkscape:window-y="48"
     inkscape:window-maximized="1" />
  <metadata
     id="metadata5">
    <rdf:RDF>
      <cc:Work
         rdf:about="">
        <dc:format>image/svg+xml</dc:format>
        <dc:type
           rdf:resource="http://purl.org/dc/dcmitype/StillImage" />
        <dc:title></dc:title>
      </cc:Work>
    </rdf:RDF>
  </metadata>
  <g
     inkscape:groupmode="layer"
     id="layer2"
     inkscape:label="Layer 2"
     style="opacity:1"
     transform="translate(-3.961907,-17.798535)">
    <g
       transform="matrix(0.26458333,0,0,0.26458333,-34.215245,-124.41133)"
       id="g1424"
       inkscape:export-filename="/home/elioqoshi/Documents/Wikimedia Albania UG/Export/PNG/Horizontal_Color.png"
       inkscape:export-xdpi="371.71533"
       inkscape:export-ydpi="371.71533">
      <path
         id="path976"
         style="fill:#ff5858;fill-opacity:1;stroke-width:0.89293271"
         d="m 213.21707,537.48611 c 12.68858,0 22.97516,10.27766 22.97516,22.97516 0,12.67965 -10.27765,22.96623 -22.97516,22.96623 -12.68857,0 -22.96623,-10.28658 -22.96623,-22.96623 0,-12.68857 10.27766,-22.97516 22.96623,-22.97516 z"
         inkscape:connector-curvature="0" />
      <path
         id="path978"
         style="fill:#ff5858;fill-opacity:1;stroke-width:0.89293271"
         d="m 259.60493,555.42513 -13.01896,13.01896 c 10.52768,9.25971 17.18896,22.83229 17.18896,37.94964 0,27.91308 -22.63585,50.53999 -50.54893,50.53999 -27.91307,0 -50.53999,-22.62691 -50.53999,-50.53999 0,-15.10842 6.63449,-28.68993 17.16217,-37.94964 l -13.01003,-13.01896 c -13.85832,12.60821 -22.54655,30.77939 -22.54655,50.97753 0,38.06572 30.85975,68.91655 68.91655,68.91655 38.07465,0 68.92547,-30.85083 68.92547,-68.91655 0.009,-20.18921 -8.68823,-38.36039 -22.52869,-50.97753 z"
         inkscape:connector-curvature="0" />
      <path
         id="path980"
         style="fill:#ff5858;fill-opacity:1;stroke-width:0.89293271"
         d="m 240.05863,574.97143 -22.25188,22.24295 v 50.27211 c 20.67139,-2.27697 36.76204,-19.79631 36.76204,-41.09276 0,-12.58142 -5.63441,-23.8413 -14.51016,-31.43123 z"
         inkscape:connector-curvature="0" />
      <path
         id="path982"
         style="fill:#ff5858;fill-opacity:1;stroke-width:0.89293271"
         d="m 208.61847,597.22331 -22.26081,-22.25188 c -8.85789,7.581 -14.50123,18.84981 -14.50123,31.43123 0,21.28752 16.08172,38.81579 36.75311,41.09276 v -50.27211 z"
         inkscape:connector-curvature="0" />
    </g>
  </g>
</svg>
