<?xml version="1.0" encoding="UTF-8" standalone="no"?>
<!-- Created with Inkscape (http://www.inkscape.org/) -->

<svg
   xmlns:dc="http://purl.org/dc/elements/1.1/"
   xmlns:cc="http://creativecommons.org/ns#"
   xmlns:rdf="http://www.w3.org/1999/02/22-rdf-syntax-ns#"
   xmlns:svg="http://www.w3.org/2000/svg"
   xmlns="http://www.w3.org/2000/svg"
   xmlns:sodipodi="http://sodipodi.sourceforge.net/DTD/sodipodi-0.dtd"
   xmlns:inkscape="http://www.inkscape.org/namespaces/inkscape"
   width="91.524574mm"
   height="73.074371mm"
   viewBox="0 0 91.524574 73.074371"
   version="1.1"
   id="svg8"
   inkscape:version="0.92.2 (unknown)"
   sodipodi:docname="Vertical_Black.svg">
  <defs
     id="defs2" />
  <sodipodi:namedview
     id="base"
     pagecolor="#ffffff"
     bordercolor="#666666"
     borderopacity="1.0"
     inkscape:pageopacity="0.0"
     inkscape:pageshadow="2"
     inkscape:zoom="1.4"
     inkscape:cx="20.739227"
     inkscape:cy="88.49606"
     inkscape:document-units="mm"
     inkscape:current-layer="layer2"
     showgrid="true"
     inkscape:showpageshadow="false"
     borderlayer="false"
     objecttolerance="20"
     guidetolerance="20"
     inkscape:snap-tangential="true"
     inkscape:snap-perpendicular="true"
     inkscape:snap-grids="true"
     inkscape:snap-page="true"
     inkscape:window-width="2560"
     inkscape:window-height="1392"
     inkscape:window-x="0"
     inkscape:window-y="48"
     inkscape:window-maximized="1" />
  <metadata
     id="metadata5">
    <rdf:RDF>
      <cc:Work
         rdf:about="">
        <dc:format>image/svg+xml</dc:format>
        <dc:type
           rdf:resource="http://purl.org/dc/dcmitype/StillImage" />
        <dc:title></dc:title>
      </cc:Work>
    </rdf:RDF>
  </metadata>
  <g
     inkscape:groupmode="layer"
     id="layer2"
     inkscape:label="Layer 2"
     style="opacity:1"
     transform="translate(-15.091885)">
    <g
       aria-label="WIKIMEDIA"
       style="font-style:normal;font-weight:normal;font-size:13.57108212px;line-height:125%;font-family:sans-serif;letter-spacing:0px;word-spacing:0px;fill:#000000;fill-opacity:1;stroke:none;stroke-width:0.33927706px;stroke-linecap:butt;stroke-linejoin:miter;stroke-opacity:1"
       id="text892">
      <path
         d="m 20.692777,47.115482 3.121349,9.513329 h 2.551363 l 1.764241,-6.419122 1.709956,6.419122 h 2.564935 l 3.13492,-9.513329 h -2.551364 l -1.791382,6.880539 -1.804954,-6.880539 h -2.429224 l -1.791383,6.880539 -1.804954,-6.880539 z"
         style="font-style:normal;font-variant:normal;font-weight:bold;font-stretch:normal;font-family:Montserrat;-inkscape-font-specification:'Montserrat Bold';stroke-width:0.33927706px;fill:#000000"
         id="path1713"
         inkscape:connector-curvature="0" />
      <path
         d="m 36.380099,47.115482 v 9.513329 h 2.483508 v -9.513329 z"
         style="font-style:normal;font-variant:normal;font-weight:bold;font-stretch:normal;font-family:Montserrat;-inkscape-font-specification:'Montserrat Bold';stroke-width:0.33927706px;fill:#000000"
         id="path1715"
         inkscape:connector-curvature="0" />
      <path
         d="m 49.847489,56.628811 -3.745619,-5.577715 3.528482,-3.935614 h -2.87707 L 43.184088,51.10538 V 47.115482 H 40.70058 v 9.513329 h 2.483508 v -2.320655 l 1.221397,-1.357108 2.469937,3.677763 z"
         style="font-style:normal;font-variant:normal;font-weight:bold;font-stretch:normal;font-family:Montserrat;-inkscape-font-specification:'Montserrat Bold';stroke-width:0.33927706px;fill:#000000"
         id="path1717"
         inkscape:connector-curvature="0" />
      <path
         d="m 50.852386,47.115482 v 9.513329 h 2.483508 v -9.513329 z"
         style="font-style:normal;font-variant:normal;font-weight:bold;font-stretch:normal;font-family:Montserrat;-inkscape-font-specification:'Montserrat Bold';stroke-width:0.33927706px;fill:#000000"
         id="path1719"
         inkscape:connector-curvature="0" />
      <path
         d="m 55.172866,47.115482 v 9.513329 h 2.212086 V 50.60325 l 2.212087,5.075585 h 1.62853 l 2.212086,-5.075585 0.01357,6.025561 h 2.198515 v -9.513329 h -2.714216 l -2.524221,5.550573 -2.524222,-5.550573 z"
         style="font-style:normal;font-variant:normal;font-weight:bold;font-stretch:normal;font-family:Montserrat;-inkscape-font-specification:'Montserrat Bold';stroke-width:0.33927706px;fill:#000000"
         id="path1721"
         inkscape:connector-curvature="0" />
      <path
         d="m 67.498168,47.115482 v 9.513329 h 7.640519 V 54.647433 H 69.981676 V 52.85605 l 4.532742,-0.01357 V 50.874672 H 69.981676 V 49.09686 h 5.021301 v -1.981378 z"
         style="font-style:normal;font-variant:normal;font-weight:bold;font-stretch:normal;font-family:Montserrat;-inkscape-font-specification:'Montserrat Bold';stroke-width:0.33927706px;fill:#000000"
         id="path1723"
         inkscape:connector-curvature="0" />
      <path
         d="M 80.767716,47.115482 H 76.66925 v 9.513329 h 4.003469 c 3.080636,0 5.157011,-1.927094 5.157011,-4.76345 0,-2.822785 -2.049233,-4.749879 -5.062014,-4.749879 z m 0.06786,7.504809 h -1.682814 v -5.482717 h 1.560674 c 1.50639,0 2.578506,1.112828 2.578506,2.754929 0,1.62853 -1.017831,2.727788 -2.456366,2.727788 z"
         style="font-style:normal;font-variant:normal;font-weight:bold;font-stretch:normal;font-family:Montserrat;-inkscape-font-specification:'Montserrat Bold';stroke-width:0.33927706px;fill:#000000"
         id="path1725"
         inkscape:connector-curvature="0" />
      <path
         d="m 87.059608,47.115482 v 9.513329 h 2.483508 v -9.513329 z"
         style="font-style:normal;font-variant:normal;font-weight:bold;font-stretch:normal;font-family:Montserrat;-inkscape-font-specification:'Montserrat Bold';stroke-width:0.33927706px;fill:#000000"
         id="path1727"
         inkscape:connector-curvature="0" />
      <path
         d="m 98.369195,56.628811 h 2.646365 l -3.989902,-9.513329 h -2.551363 l -4.084896,9.513329 h 2.551363 l 0.664983,-1.682814 h 4.112038 z m -4.01704,-3.582766 1.329966,-3.39277 1.302824,3.39277 z"
         style="font-style:normal;font-variant:normal;font-weight:bold;font-stretch:normal;font-family:Montserrat;-inkscape-font-specification:'Montserrat Bold';stroke-width:0.33927706px;fill:#000000"
         id="path1729"
         inkscape:connector-curvature="0" />
    </g>
    <g
       aria-label="COMMUNITY USER GROUP"
       style="font-style:normal;font-weight:normal;font-size:10.58333302px;line-height:125%;font-family:sans-serif;letter-spacing:0px;word-spacing:0px;fill:#000000;fill-opacity:1;stroke:none;stroke-width:0.26458332px;stroke-linecap:butt;stroke-linejoin:miter;stroke-opacity:1"
       id="text896">
      <path
         d="m 17.882357,61.076953 0.340784,-0.424745 c -0.335845,-0.330905 -0.824795,-0.5334 -1.313745,-0.5334 -1.02235,0 -1.817511,0.75565 -1.817511,1.738489 0,0.992717 0.785284,1.758244 1.797756,1.758244 0.48895,0 0.987778,-0.22225 1.338439,-0.567972 l -0.345723,-0.385233 c -0.261761,0.251883 -0.617361,0.409928 -0.963083,0.409928 -0.691444,0 -1.234722,-0.538339 -1.234722,-1.219906 0,-0.681566 0.543278,-1.214966 1.234722,-1.214966 0.350661,0 0.7112,0.167922 0.963083,0.439561 z"
         style="font-style:normal;font-variant:normal;font-weight:normal;font-stretch:normal;font-size:4.93888855px;line-height:14.39999962ex;font-family:Montserrat;-inkscape-font-specification:Montserrat;text-align:center;letter-spacing:1.32291663px;text-anchor:middle;fill:#000000;fill-opacity:1;stroke-width:0.26458332px"
         id="path1732"
         inkscape:connector-curvature="0" />
      <path
         d="m 21.613677,60.118808 c -1.032228,0 -1.832328,0.750711 -1.832328,1.743428 0,0.987778 0.8001,1.753305 1.832328,1.753305 1.032227,0 1.832327,-0.765527 1.832327,-1.753305 0,-0.987778 -0.8001,-1.743428 -1.832327,-1.743428 z m 0.0049,0.523523 c 0.676627,0 1.229783,0.5334 1.229783,1.219905 0,0.686506 -0.553156,1.229783 -1.229783,1.229783 -0.676628,0 -1.2446,-0.543277 -1.2446,-1.229783 0,-0.686505 0.563033,-1.219905 1.2446,-1.219905 z"
         style="font-style:normal;font-variant:normal;font-weight:normal;font-stretch:normal;font-size:4.93888855px;line-height:14.39999962ex;font-family:Montserrat;-inkscape-font-specification:Montserrat;text-align:center;letter-spacing:1.32291663px;text-anchor:middle;fill:#000000;fill-opacity:1;stroke-width:0.26458332px"
         id="path1734"
         inkscape:connector-curvature="0" />
      <path
         d="m 25.393922,60.133625 v 3.457222 h 0.548217 v -2.583039 l 1.091494,2.2225 h 0.380294 l 1.091495,-2.2225 0.0049,2.583039 H 29.0487 v -3.457222 h -0.686506 l -1.135944,2.296583 -1.140884,-2.296583 z"
         style="font-style:normal;font-variant:normal;font-weight:normal;font-stretch:normal;font-size:4.93888855px;line-height:14.39999962ex;font-family:Montserrat;-inkscape-font-specification:Montserrat;text-align:center;letter-spacing:1.32291663px;text-anchor:middle;fill:#000000;fill-opacity:1;stroke-width:0.26458332px"
         id="path1736"
         inkscape:connector-curvature="0" />
      <path
         d="m 31.289169,60.133625 v 3.457222 h 0.548216 v -2.583039 l 1.091495,2.2225 h 0.380294 l 1.091494,-2.2225 0.0049,2.583039 h 0.538339 v -3.457222 h -0.686505 l -1.135945,2.296583 -1.140883,-2.296583 z"
         style="font-style:normal;font-variant:normal;font-weight:normal;font-stretch:normal;font-size:4.93888855px;line-height:14.39999962ex;font-family:Montserrat;-inkscape-font-specification:Montserrat;text-align:center;letter-spacing:1.32291663px;text-anchor:middle;fill:#000000;fill-opacity:1;stroke-width:0.26458332px"
         id="path1738"
         inkscape:connector-curvature="0" />
      <path
         d="m 37.698061,62.158569 v -2.024944 h -0.582788 v 2.024944 c 0,0.903817 0.572911,1.456972 1.506361,1.456972 0.93345,0 1.501422,-0.553155 1.501422,-1.456972 v -2.024944 h -0.582789 v 2.024944 c 0,0.587728 -0.350661,0.93345 -0.913695,0.93345 -0.567972,0 -0.928511,-0.350661 -0.928511,-0.93345 z"
         style="font-style:normal;font-variant:normal;font-weight:normal;font-stretch:normal;font-size:4.93888855px;line-height:14.39999962ex;font-family:Montserrat;-inkscape-font-specification:Montserrat;text-align:center;letter-spacing:1.32291663px;text-anchor:middle;fill:#000000;fill-opacity:1;stroke-width:0.26458332px"
         id="path1740"
         inkscape:connector-curvature="0" />
      <path
         d="m 42.279023,60.133625 v 3.457222 h 0.582789 v -2.479322 l 1.842206,2.479322 h 0.572911 v -3.457222 h -0.572911 v 2.484261 l -1.852084,-2.484261 z"
         style="font-style:normal;font-variant:normal;font-weight:normal;font-stretch:normal;font-size:4.93888855px;line-height:14.39999962ex;font-family:Montserrat;-inkscape-font-specification:Montserrat;text-align:center;letter-spacing:1.32291663px;text-anchor:middle;fill:#000000;fill-opacity:1;stroke-width:0.26458332px"
         id="path1742"
         inkscape:connector-curvature="0" />
      <path
         d="m 47.518325,60.133625 v 3.457222 h 0.582789 v -3.457222 z"
         style="font-style:normal;font-variant:normal;font-weight:normal;font-stretch:normal;font-size:4.93888855px;line-height:14.39999962ex;font-family:Montserrat;-inkscape-font-specification:Montserrat;text-align:center;letter-spacing:1.32291663px;text-anchor:middle;fill:#000000;fill-opacity:1;stroke-width:0.26458332px"
         id="path1744"
         inkscape:connector-curvature="0" />
      <path
         d="m 49.926486,60.133625 v 0.523522 h 1.091494 v 2.9337 h 0.582789 v -2.9337 h 1.096433 v -0.523522 z"
         style="font-style:normal;font-variant:normal;font-weight:normal;font-stretch:normal;font-size:4.93888855px;line-height:14.39999962ex;font-family:Montserrat;-inkscape-font-specification:Montserrat;text-align:center;letter-spacing:1.32291663px;text-anchor:middle;fill:#000000;fill-opacity:1;stroke-width:0.26458332px"
         id="path1746"
         inkscape:connector-curvature="0" />
      <path
         d="m 57.20138,60.133625 h -0.592666 l -0.968023,1.684161 -0.987777,-1.684161 h -0.587728 l 1.28905,2.326217 v 1.131005 h 0.57785 v -1.150761 z"
         style="font-style:normal;font-variant:normal;font-weight:normal;font-stretch:normal;font-size:4.93888855px;line-height:14.39999962ex;font-family:Montserrat;-inkscape-font-specification:Montserrat;text-align:center;letter-spacing:1.32291663px;text-anchor:middle;fill:#000000;fill-opacity:1;stroke-width:0.26458332px"
         id="path1748"
         inkscape:connector-curvature="0" />
      <path
         d="M 62.304308,62.158569 V 60.133625 H 61.72152 v 2.024944 c 0,0.903817 0.572911,1.456972 1.506361,1.456972 0.933449,0 1.501422,-0.553155 1.501422,-1.456972 v -2.024944 h -0.582789 v 2.024944 c 0,0.587728 -0.350661,0.93345 -0.913695,0.93345 -0.567972,0 -0.928511,-0.350661 -0.928511,-0.93345 z"
         style="font-style:normal;font-variant:normal;font-weight:normal;font-stretch:normal;font-size:4.93888855px;line-height:14.39999962ex;font-family:Montserrat;-inkscape-font-specification:Montserrat;text-align:center;letter-spacing:1.32291663px;text-anchor:middle;fill:#000000;fill-opacity:1;stroke-width:0.26458332px"
         id="path1750"
         inkscape:connector-curvature="0" />
      <path
         d="m 68.989239,60.978175 0.242005,-0.513644 c -0.321027,-0.212373 -0.760589,-0.3556 -1.210027,-0.3556 -0.750711,0 -1.259417,0.370416 -1.259417,0.963083 0,1.229783 1.8669,0.8001 1.8669,1.570566 0,0.2667 -0.242006,0.419806 -0.646994,0.419806 -0.370417,0 -0.814917,-0.1778 -1.170517,-0.503767 l -0.251883,0.503767 c 0.3556,0.325967 0.869244,0.548217 1.412522,0.548217 0.760589,0 1.303866,-0.380295 1.303866,-0.997656 0.0049,-1.2446 -1.861961,-0.839611 -1.861961,-1.595261 0,-0.232128 0.22225,-0.360539 0.563034,-0.360539 0.261761,0 0.637116,0.09384 1.012472,0.321028 z"
         style="font-style:normal;font-variant:normal;font-weight:normal;font-stretch:normal;font-size:4.93888855px;line-height:14.39999962ex;font-family:Montserrat;-inkscape-font-specification:Montserrat;text-align:center;letter-spacing:1.32291663px;text-anchor:middle;fill:#000000;fill-opacity:1;stroke-width:0.26458332px"
         id="path1752"
         inkscape:connector-curvature="0" />
      <path
         d="m 71.275703,60.133625 v 3.457222 h 2.528711 v -0.523522 h -1.945922 v -0.953206 h 1.689099 v -0.518583 h -1.689099 v -0.938389 h 1.886655 v -0.523522 z"
         style="font-style:normal;font-variant:normal;font-weight:normal;font-stretch:normal;font-size:4.93888855px;line-height:14.39999962ex;font-family:Montserrat;-inkscape-font-specification:Montserrat;text-align:center;letter-spacing:1.32291663px;text-anchor:middle;fill:#000000;fill-opacity:1;stroke-width:0.26458332px"
         id="path1754"
         inkscape:connector-curvature="0" />
      <path
         d="m 78.69444,63.590847 -0.775405,-1.1557 c 0.459317,-0.1778 0.716139,-0.567972 0.716139,-1.121128 0,-0.750711 -0.508706,-1.180394 -1.392767,-1.180394 h -1.402644 v 3.457222 h 0.582789 v -1.042105 h 0.819855 c 0.05433,0 0.108656,0 0.158045,-0.0049 l 0.632177,1.047044 z m -2.271888,-1.565628 v -1.368072 h 0.819855 c 0.5334,0 0.839611,0.217311 0.839611,0.671689 0,0.469194 -0.306211,0.696383 -0.839611,0.696383 z"
         style="font-style:normal;font-variant:normal;font-weight:normal;font-stretch:normal;font-size:4.93888855px;line-height:14.39999962ex;font-family:Montserrat;-inkscape-font-specification:Montserrat;text-align:center;letter-spacing:1.32291663px;text-anchor:middle;fill:#000000;fill-opacity:1;stroke-width:0.26458332px"
         id="path1756"
         inkscape:connector-curvature="0" />
      <path
         d="m 85.905964,62.854953 c -0.246944,0.148166 -0.538339,0.237066 -0.795161,0.237066 -0.706261,0 -1.264355,-0.538339 -1.264355,-1.229783 0,-0.686505 0.553155,-1.224844 1.259416,-1.224844 0.360539,0 0.730956,0.148166 0.997656,0.395111 l 0.330905,-0.429684 c -0.340783,-0.296333 -0.834672,-0.484011 -1.328561,-0.484011 -1.047044,0 -1.852083,0.75565 -1.852083,1.743428 0,0.987778 0.795161,1.753305 1.817511,1.753305 0.474133,0 0.992717,-0.182738 1.343378,-0.449438 v -1.274234 h -0.508706 z"
         style="font-style:normal;font-variant:normal;font-weight:normal;font-stretch:normal;font-size:4.93888855px;line-height:14.39999962ex;font-family:Montserrat;-inkscape-font-specification:Montserrat;text-align:center;letter-spacing:1.32291663px;text-anchor:middle;fill:#000000;fill-opacity:1;stroke-width:0.26458332px"
         id="path1758"
         inkscape:connector-curvature="0" />
      <path
         d="m 91.412355,63.590847 -0.775405,-1.1557 c 0.459316,-0.1778 0.716138,-0.567972 0.716138,-1.121128 0,-0.750711 -0.508705,-1.180394 -1.392766,-1.180394 h -1.402645 v 3.457222 h 0.582789 v -1.042105 h 0.819856 c 0.05433,0 0.108655,0 0.158044,-0.0049 l 0.632178,1.047044 z m -2.271889,-1.565628 v -1.368072 h 0.819856 c 0.5334,0 0.839611,0.217311 0.839611,0.671689 0,0.469194 -0.306211,0.696383 -0.839611,0.696383 z"
         style="font-style:normal;font-variant:normal;font-weight:normal;font-stretch:normal;font-size:4.93888855px;line-height:14.39999962ex;font-family:Montserrat;-inkscape-font-specification:Montserrat;text-align:center;letter-spacing:1.32291663px;text-anchor:middle;fill:#000000;fill-opacity:1;stroke-width:0.26458332px"
         id="path1760"
         inkscape:connector-curvature="0" />
      <path
         d="m 94.995586,60.118808 c -1.032228,0 -1.832328,0.750711 -1.832328,1.743428 0,0.987778 0.8001,1.753305 1.832328,1.753305 1.032228,0 1.832328,-0.765527 1.832328,-1.753305 0,-0.987778 -0.8001,-1.743428 -1.832328,-1.743428 z m 0.0049,0.523523 c 0.676628,0 1.229783,0.5334 1.229783,1.219905 0,0.686506 -0.553155,1.229783 -1.229783,1.229783 -0.676628,0 -1.2446,-0.543277 -1.2446,-1.229783 0,-0.686505 0.563033,-1.219905 1.2446,-1.219905 z"
         style="font-style:normal;font-variant:normal;font-weight:normal;font-stretch:normal;font-size:4.93888855px;line-height:14.39999962ex;font-family:Montserrat;-inkscape-font-specification:Montserrat;text-align:center;letter-spacing:1.32291663px;text-anchor:middle;fill:#000000;fill-opacity:1;stroke-width:0.26458332px"
         id="path1762"
         inkscape:connector-curvature="0" />
      <path
         d="m 99.289477,62.158569 v -2.024944 h -0.582789 v 2.024944 c 0,0.903817 0.572911,1.456972 1.506362,1.456972 0.93345,0 1.50142,-0.553155 1.50142,-1.456972 v -2.024944 h -0.58279 v 2.024944 c 0,0.587728 -0.35066,0.93345 -0.91369,0.93345 -0.567974,0 -0.928513,-0.350661 -0.928513,-0.93345 z"
         style="font-style:normal;font-variant:normal;font-weight:normal;font-stretch:normal;font-size:4.93888855px;line-height:14.39999962ex;font-family:Montserrat;-inkscape-font-specification:Montserrat;text-align:center;letter-spacing:1.32291663px;text-anchor:middle;fill:#000000;fill-opacity:1;stroke-width:0.26458332px"
         id="path1764"
         inkscape:connector-curvature="0" />
      <path
         d="m 105.24839,60.133625 h -1.37795 v 3.457222 h 0.58279 v -1.042105 h 0.79516 c 0.86924,0 1.36807,-0.454378 1.36807,-1.234723 0,-0.750711 -0.49883,-1.180394 -1.36807,-1.180394 z m -0.0247,1.891594 h -0.77046 v -1.368072 h 0.77046 c 0.5334,0 0.83467,0.217311 0.83467,0.671689 0,0.469194 -0.30127,0.696383 -0.83467,0.696383 z"
         style="font-style:normal;font-variant:normal;font-weight:normal;font-stretch:normal;font-size:4.93888855px;line-height:14.39999962ex;font-family:Montserrat;-inkscape-font-specification:Montserrat;text-align:center;letter-spacing:1.32291663px;text-anchor:middle;fill:#000000;fill-opacity:1;stroke-width:0.26458332px"
         id="path1766"
         inkscape:connector-curvature="0" />
    </g>
    <g
       id="g1418"
       transform="matrix(0.26458333,0,0,0.26458333,-41.656016,-29.910897)"
       style="fill:#000000">
      <path
         inkscape:connector-curvature="0"
         d="m 387.44504,113.04906 c 14.21,0 25.73,11.51 25.73,25.73 0,14.2 -11.51,25.72 -25.73,25.72 -14.21,0 -25.72,-11.52 -25.72,-25.72 0,-14.21 11.51,-25.73 25.72,-25.73 z"
         style="fill:#000000;fill-opacity:1"
         id="path922" />
      <path
         inkscape:connector-curvature="0"
         d="m 439.39504,133.13906 -14.58,14.58 c 11.79,10.37 19.25,25.57 19.25,42.5 0,31.26001 -25.35,56.60001 -56.61,56.60001 -31.26,0 -56.6,-25.34 -56.6,-56.60001 0,-16.92 7.43,-32.13 19.22,-42.5 l -14.57,-14.58 c -15.52,14.12 -25.25,34.47 -25.25,57.09 0,42.63001 34.56,77.18001 77.18,77.18001 42.64,0 77.19,-34.55 77.19,-77.18001 0.01,-22.61 -9.73,-42.96 -25.23,-57.09 z"
         style="fill:#000000;fill-opacity:1"
         id="path924" />
      <path
         inkscape:connector-curvature="0"
         d="m 417.50504,155.02906 -24.92,24.91 v 56.30001 c 23.15,-2.55 41.17,-22.17 41.17,-46.02001 0,-14.09 -6.31,-26.7 -16.25,-35.2 z"
         style="fill:#000000;fill-opacity:1"
         id="path926" />
      <path
         inkscape:connector-curvature="0"
         d="m 382.29504,179.94906 -24.93,-24.92 c -9.92,8.49 -16.24,21.11 -16.24,35.2 0,23.84001 18.01,43.47001 41.16,46.02001 v -56.30001 z"
         style="fill:#000000;fill-opacity:1"
         id="path928" />
    </g>
    <g
       aria-label="ALBANIA"
       style="font-style:normal;font-weight:normal;font-size:9.15995884px;line-height:125%;font-family:sans-serif;letter-spacing:0px;word-spacing:0px;fill:#000000;fill-opacity:1;stroke:none;stroke-width:0.22899897px;stroke-linecap:butt;stroke-linejoin:miter;stroke-opacity:1"
       id="text966">
      <path
         d="m 44.656212,73.074371 h 1.786192 L 43.749376,66.65324 h -1.722072 l -2.757148,6.421131 h 1.722073 l 0.448838,-1.135835 h 2.775467 z m -2.711348,-2.418229 0.897676,-2.28999 0.879356,2.28999 z"
         style="font-style:normal;font-variant:normal;font-weight:bold;font-stretch:normal;font-family:Montserrat;-inkscape-font-specification:'Montserrat Bold';stroke-width:0.22899897px;fill:#000000"
         id="path1769"
         inkscape:connector-curvature="0" />
      <path
         d="m 47.023489,66.65324 v 6.421131 h 4.39678 V 71.645418 H 48.699762 V 66.65324 Z"
         style="font-style:normal;font-variant:normal;font-weight:bold;font-stretch:normal;font-family:Montserrat;-inkscape-font-specification:'Montserrat Bold';stroke-width:0.22899897px;fill:#000000"
         id="path1771"
         inkscape:connector-curvature="0" />
      <path
         d="m 55.226233,66.65324 h -3.050267 v 6.421131 h 3.169346 c 1.511393,0 2.473189,-0.686997 2.473189,-1.786192 0,-0.824396 -0.503798,-1.456433 -1.319034,-1.621312 0.677837,-0.1832 1.108355,-0.723637 1.108355,-1.392314 0,-0.989276 -0.925156,-1.621313 -2.381589,-1.621313 z m -0.0916,2.555629 h -1.282394 v -1.245755 h 1.282394 c 0.467158,-0.0092 0.751117,0.219839 0.751117,0.604558 0,0.403038 -0.283959,0.641197 -0.751117,0.641197 z m 0,2.564788 h -1.282394 v -1.346514 h 1.282394 c 0.586237,-0.0092 0.952636,0.247319 0.952636,0.650357 0,0.439678 -0.366399,0.696157 -0.952636,0.696157 z"
         style="font-style:normal;font-variant:normal;font-weight:bold;font-stretch:normal;font-family:Montserrat;-inkscape-font-specification:'Montserrat Bold';stroke-width:0.22899897px;fill:#000000"
         id="path1773"
         inkscape:connector-curvature="0" />
      <path
         d="m 63.459175,73.074371 h 1.786192 L 62.552339,66.65324 h -1.722072 l -2.757147,6.421131 h 1.722072 l 0.448838,-1.135835 h 2.775467 z m -2.711347,-2.418229 0.897676,-2.28999 0.879356,2.28999 z"
         style="font-style:normal;font-variant:normal;font-weight:bold;font-stretch:normal;font-family:Montserrat;-inkscape-font-specification:'Montserrat Bold';stroke-width:0.22899897px;fill:#000000"
         id="path1775"
         inkscape:connector-curvature="0" />
      <path
         d="m 65.826452,66.65324 v 6.421131 h 1.566353 v -3.847182 l 2.912867,3.847182 h 1.465594 V 66.65324 h -1.557193 v 3.865503 L 67.301206,66.65324 Z"
         style="font-style:normal;font-variant:normal;font-weight:bold;font-stretch:normal;font-family:Montserrat;-inkscape-font-specification:'Montserrat Bold';stroke-width:0.22899897px;fill:#000000"
         id="path1777"
         inkscape:connector-curvature="0" />
      <path
         d="m 73.01845,66.65324 v 6.421131 h 1.676272 V 66.65324 Z"
         style="font-style:normal;font-variant:normal;font-weight:bold;font-stretch:normal;font-family:Montserrat;-inkscape-font-specification:'Montserrat Bold';stroke-width:0.22899897px;fill:#000000"
         id="path1779"
         inkscape:connector-curvature="0" />
      <path
         d="m 80.651989,73.074371 h 1.786192 L 79.745153,66.65324 h -1.722072 l -2.757148,6.421131 h 1.722073 l 0.448838,-1.135835 h 2.775467 z m -2.711348,-2.418229 0.897676,-2.28999 0.879356,2.28999 z"
         style="font-style:normal;font-variant:normal;font-weight:bold;font-stretch:normal;font-family:Montserrat;-inkscape-font-specification:'Montserrat Bold';stroke-width:0.22899897px;fill:#000000"
         id="path1781"
         inkscape:connector-curvature="0" />
    </g>
  </g>
</svg>
